<svg id="Group_2569" data-name="Group 2569" xmlns="http://www.w3.org/2000/svg" width="36.032" height="37.412" viewBox="0 0 36.032 37.412">
  <path id="Path_13462" data-name="Path 13462" d="M420.366-178.261a9.879,9.879,0,0,0,9.866-9.866A9.886,9.886,0,0,0,420.366-198a9.879,9.879,0,0,0-9.866,9.866A9.886,9.886,0,0,0,420.366-178.261Zm0-18.231a8.363,8.363,0,0,1,8.365,8.357,8.363,8.363,0,0,1-8.357,8.365,8.363,8.363,0,0,1-8.365-8.357v-.008a8.371,8.371,0,0,1,8.357-8.357Z" transform="translate(-396.357 198)" fill="#e59e62"/>
  <path id="Path_13463" data-name="Path 13463" d="M493.41-133.458h-1.569a.756.756,0,0,0-.754.754.756.756,0,0,0,.754.754h1.584v.453h-1.584a.756.756,0,0,0-.754.754.756.756,0,0,0,.754.754h1.584v1.252a.756.756,0,0,0,.754.754.756.756,0,0,0,.754-.754v-1.252h1.637a.756.756,0,0,0,.754-.754.756.756,0,0,0-.754-.754h-1.637v-.453h1.637a.756.756,0,0,0,.754-.754.756.756,0,0,0-.754-.754h-1.426l2.844-4a.747.747,0,0,0-.174-1.041h-.007a.75.75,0,0,0-1.048.181l-2.474,3.5-2.474-3.492a.751.751,0,0,0-1.048-.181.733.733,0,0,0-.189,1.026l.008.008Z" transform="translate(-470.269 143.113)" fill="#e59e62"/>
  <path id="Path_13464" data-name="Path 13464" d="M258.383,68.413a2.8,2.8,0,0,0-3.937-.407c-1.509,1.229-3.7,3-5.129,4.156a5.961,5.961,0,0,1-3.53,1.312l-3.862.128a.436.436,0,0,1-.385-.2l-.43-.739a.4.4,0,0,1-.023-.392.42.42,0,0,1,.309-.241l3.99-.754a2.778,2.778,0,0,0,2.225-3.032,2.728,2.728,0,0,0-2.715-2.429h-.136l-5.333-.219a12.2,12.2,0,0,0-6.087,1.365l-2.791,1.35a2.353,2.353,0,0,0-2.12-1.335h-3.085A2.334,2.334,0,0,0,223,69.3V80.783a2.345,2.345,0,0,0,2.346,2.331h3.085a2.339,2.339,0,0,0,2.338-2.331v-.777l2.964-.543a11.639,11.639,0,0,1,2.58-.151l8.108.377a11.7,11.7,0,0,0,8.018-2.708l5.619-4.661.007-.008a2.761,2.761,0,0,0,.377-3.8A.43.43,0,0,0,258.383,68.413ZM229.26,80.783a.824.824,0,0,1-.822.822h-3.108a.824.824,0,0,1-.822-.822h0V69.3a.824.824,0,0,1,.822-.822h3.108a.824.824,0,0,1,.822.822h0Zm27.833-9.624-5.612,4.654a10.254,10.254,0,0,1-6.992,2.361l-8.108-.377a13.349,13.349,0,0,0-2.881.166.028.028,0,0,0-.023.008l-2.708.5v-8.6L234,68.308a10.743,10.743,0,0,1,5.37-1.214l5.37.219h.158a1.243,1.243,0,0,1,1.222,1.086,1.262,1.262,0,0,1-1,1.38l-3.99.754a1.938,1.938,0,0,0-1.539,2.263,1.978,1.978,0,0,0,.234.618l.43.732a1.941,1.941,0,0,0,1.735.95l3.862-.128a7.571,7.571,0,0,0,4.428-1.644c1.426-1.154,3.628-2.927,5.137-4.156a1.31,1.31,0,0,1,1.78.158.627.627,0,0,0,.06.091,1.248,1.248,0,0,1-.158,1.742Z" transform="translate(-223 -45.702)" fill="#e59e62"/>
</svg>
