<svg xmlns="http://www.w3.org/2000/svg" width="142.762" height="175.203" viewBox="0 0 142.762 175.203">
  <g id="Group_37" data-name="Group 37" transform="translate(-99.182 -331.393)">
    <g id="Group_11" data-name="Group 11" transform="translate(99.182 472.683)">
      <g id="Group_10" data-name="Group 10">
        <path id="Path_1" data-name="Path 1" d="M114.552,439.806h-11.5V429.243H99.182v26.508h3.874V443.574h11.5v12.177h3.839V429.243h-3.839Z" transform="translate(-99.182 -428.611)" fill="#e56274"/>
        <path id="Path_2" data-name="Path 2" d="M137.417,439.768l-3.413,1.1.117.387c.953,3.146.41,5.683-1.659,7.754a5.96,5.96,0,0,1-4.354,1.816h-.059a6.886,6.886,0,0,1-4.419-1.7l11.844-11.844-.3-.29a11.291,11.291,0,0,0-7.813-3.527,10.048,10.048,0,0,0-7.229,3.062,9.694,9.694,0,0,0-2.96,7.361,10.895,10.895,0,0,0,10.5,10.523q.148,0,.3,0a9.827,9.827,0,0,0,7.14-3.065,10.1,10.1,0,0,0,2.878-5.031,12.446,12.446,0,0,0-.442-6.145Zm-7.287-1.93-8.554,8.554c-1.321-2.837-.953-5.23,1.12-7.3a6.664,6.664,0,0,1,3.767-1.945,5.73,5.73,0,0,1,.846-.064A5.8,5.8,0,0,1,130.131,437.838Z" transform="translate(-91.083 -426.711)" fill="#e56274"/>
        <rect id="Rectangle_9" data-name="Rectangle 9" width="3.698" height="27.14" transform="translate(53.096)" fill="#e56274"/>
        <path id="Path_3" data-name="Path 3" d="M153.62,433.428a9.062,9.062,0,0,0-6.608,2.759V433.92h-3.7v26.719h3.7v-8.984A9.638,9.638,0,0,0,153.8,454.5a9.742,9.742,0,0,0,7.245-3.108,10.4,10.4,0,0,0,2.992-7.445A10.27,10.27,0,0,0,161,436.516,10,10,0,0,0,153.62,433.428Zm-.07,3.629a6.381,6.381,0,0,1,4.811,2.033,7.091,7.091,0,0,1-.033,9.85,6.34,6.34,0,0,1-4.708,2.035,6.454,6.454,0,0,1-4.8-2,6.794,6.794,0,0,1-1.987-4.957,6.888,6.888,0,0,1,1.938-4.96A6.326,6.326,0,0,1,153.55,437.057Z" transform="translate(-79.305 -426.726)" fill="#e56274"/>
        <path id="Path_4" data-name="Path 4" d="M181.743,439.768l-3.413,1.1.116.387c.954,3.146.412,5.683-1.659,7.754a5.955,5.955,0,0,1-4.354,1.816h-.058a6.89,6.89,0,0,1-4.421-1.7L179.8,437.279l-.3-.29a11.289,11.289,0,0,0-7.813-3.527,10.043,10.043,0,0,0-7.227,3.062,9.7,9.7,0,0,0-2.962,7.361,10.894,10.894,0,0,0,10.5,10.523c.1,0,.2,0,.294,0a9.833,9.833,0,0,0,7.142-3.065,10.107,10.107,0,0,0,2.878-5.031,12.48,12.48,0,0,0-.442-6.145Zm-7.288-1.93-8.553,8.554c-1.323-2.837-.954-5.23,1.118-7.3a6.669,6.669,0,0,1,3.767-1.945,5.639,5.639,0,0,1,3.668.693Z" transform="translate(-71.119 -426.711)" fill="#e56274"/>
        <path id="Path_5" data-name="Path 5" d="M184.379,434.135a6.351,6.351,0,0,0-1.126,1.046v-1.262h-3.768v19.946h3.768v-6.972a29.741,29.741,0,0,1,.425-6.164,6.754,6.754,0,0,1,1.237-2.647,1.915,1.915,0,0,1,2.614-.653l.339.181,1.938-3.156-.383-.206C187.367,433.147,185.691,433.207,184.379,434.135Z" transform="translate(-63.013 -426.725)" fill="#e56274"/>
        <path id="Path_6" data-name="Path 6" d="M196.762,442.2a14.712,14.712,0,0,1-2.843-1.8,1.9,1.9,0,0,1-.692-1.452,1.8,1.8,0,0,1,.606-1.384,2.164,2.164,0,0,1,1.546-.574,5.546,5.546,0,0,1,3.51,1.819l.294.276,2.424-2.515-.293-.284c-1.941-1.894-3.826-2.854-5.6-2.854a5.987,5.987,0,0,0-4.321,1.59,5.193,5.193,0,0,0-1.652,3.857,5.49,5.49,0,0,0,1.168,3.632,10.232,10.232,0,0,0,3.287,2.438,13.43,13.43,0,0,1,2.856,1.778,2.148,2.148,0,0,1,.727,1.662,2.3,2.3,0,0,1-.817,1.752,2.816,2.816,0,0,1-2,.767,4.886,4.886,0,0,1-3.548-2.067l-.3-.355-2.368,2.64.213.271a7.507,7.507,0,0,0,6.113,3.105,6.153,6.153,0,0,0,4.482-1.8,6.023,6.023,0,0,0,1.823-4.434,5.272,5.272,0,0,0-1.239-3.53A11.344,11.344,0,0,0,196.762,442.2Z" transform="translate(-58.846 -426.726)" fill="#e56274"/>
      </g>
    </g>
    <g id="Group_12" data-name="Group 12" transform="translate(105.308 331.393)">
      <path id="Path_7" data-name="Path 7" d="M213.569,354.221c-9.635-20.1-16.25-22.828-21.456-22.828-2.48,0-9.481,6.3-14.636,13.934H159.83c-4.424-6.46-11.757-13.934-14.682-13.934-5.176,0-11.764,2.73-21.4,22.829-12.076,9.96-28.484,33.622-15.7,61.324,7.2,15.588,21.46,22.51,34.742,25.591l-.048,14.655,26-11.428L194.522,455.8l.046-14.666c13.271-3.085,27.516-10.008,34.7-25.581C242.06,387.841,225.648,364.181,213.569,354.221Zm10.675,59.007c-11.467,24.844-44.672,24.844-55.584,24.844s-44.117,0-55.584-24.847c-5.147-11.152-5.541-22.462-1.168-33.616a53.446,53.446,0,0,1,15.8-21.472l.5-.4.273-.574c8.627-18.176,13.795-20.024,16.068-20.211a46.506,46.506,0,0,1,11.46,12.632l.817,1.281H180.5l.815-1.284a45.737,45.737,0,0,1,11.449-12.63c2.244.187,7.448,2.028,16.076,20.213l.273.574.5.4a53.433,53.433,0,0,1,15.805,21.472C229.784,390.764,229.393,402.074,224.244,413.228Z" transform="translate(-103.406 -331.393)" fill="#e56274"/>
      <circle id="Ellipse_1" data-name="Ellipse 1" cx="7.259" cy="7.259" r="7.259" transform="matrix(0.973, -0.23, 0.23, 0.973, 82.892, 48.683)" fill="#e56274"/>
      <circle id="Ellipse_2" data-name="Ellipse 2" cx="7.259" cy="7.259" r="7.259" transform="translate(28.62 54.08) rotate(-45)" fill="#e56274"/>
      <path id="Path_8" data-name="Path 8" d="M151.346,375.559c-5.246,0-9.5,3.349-9.5,7.48,0,2.56,3.649,4.82,6.425,6.167a16.38,16.38,0,0,1-3.162,8.52,2.769,2.769,0,0,0,4.44,3.31,21.417,21.417,0,0,0,1.8-2.872,21.572,21.572,0,0,0,1.8,2.872,2.769,2.769,0,1,0,4.44-3.31,16.367,16.367,0,0,1-3.162-8.52c2.775-1.347,6.425-3.607,6.425-6.167C160.848,378.908,156.594,375.559,151.346,375.559Z" transform="translate(-86.092 -311.501)" fill="#e56274"/>
      <circle id="Ellipse_3" data-name="Ellipse 3" cx="4.297" cy="4.297" r="4.297" transform="translate(60.958 117.804)" fill="#e56274"/>
    </g>
  </g>
</svg>
