<svg id="Component_163_2" data-name="Component 163 – 2" xmlns="http://www.w3.org/2000/svg" width="501" height="281" viewBox="0 0 501 281">
  <rect id="Rectangle_2106" data-name="Rectangle 2106" width="501" height="281" fill="#f4f4f4"/>
  <g id="Group_2882" data-name="Group 2882" transform="translate(-638.279 -334.254)">
    <path id="Path_12525" data-name="Path 12525" d="M922.816,414.964H849.6a2.528,2.528,0,0,0-2.527,2.527v57.088a2.527,2.527,0,0,0,2.527,2.527h73.215a2.527,2.527,0,0,0,2.527-2.527V417.491a2.527,2.527,0,0,0-2.527-2.527Zm-2.527,5.053v48.206L900.078,446.73a2.526,2.526,0,0,0-3.681,0l-8.631,9.172-11.572-15.259a2.524,2.524,0,0,0-2.012-1h0a2.532,2.532,0,0,0-2.013,1l-20.036,26.511V420.017Zm-3.337,52.034H854.764l19.421-25.695,11.36,14.979a2.526,2.526,0,0,0,3.852.206l8.838-9.393Zm0,0" fill="#969696"/>
    <path id="Path_12526" data-name="Path 12526" d="M959.847,454.324a8.307,8.307,0,1,0-8.307-8.307,8.316,8.316,0,0,0,8.307,8.307Zm0-11.561a3.253,3.253,0,1,1-3.254,3.254,3.257,3.257,0,0,1,3.254-3.254Zm0,0" transform="translate(-60.473 -13.167)" fill="#969696"/>
  </g>
  <text id="Label" transform="translate(166 177)" fill="#d38787" font-size="25" font-family="YuGothicUI-Semibold, Yu Gothic UI" font-weight="600"><tspan x="0" y="0">画像をアップロード</tspan></text>
  <g id="Group_2346" data-name="Group 2346" transform="translate(269.911 86.423)">
    <path id="Path_12527" data-name="Path 12527" d="M248.373,164.5q.682,0,1.36.067t1.347.2q.668.133,1.321.33t1.282.459a13.6,13.6,0,0,1,1.231.582q.6.321,1.168.7t1.093.811a13.612,13.612,0,0,1,1.009.914q.483.482.914,1.009t.811,1.093q.379.567.7,1.168a13.554,13.554,0,0,1,.582,1.231q.262.629.459,1.282t.33,1.321q.134.669.2,1.347t.067,1.36q0,.682-.067,1.36t-.2,1.347q-.133.668-.33,1.321t-.459,1.282a13.562,13.562,0,0,1-.582,1.231q-.321.6-.7,1.168t-.811,1.093q-.432.527-.914,1.009a13.613,13.613,0,0,1-1.009.914q-.526.433-1.093.811t-1.168.7q-.6.321-1.231.582t-1.282.459q-.652.2-1.321.33t-1.347.2q-.678.066-1.36.067t-1.36-.067q-.679-.067-1.347-.2t-1.321-.33q-.652-.2-1.282-.459a13.59,13.59,0,0,1-1.231-.582q-.6-.321-1.168-.7t-1.093-.811q-.527-.432-1.009-.914t-.914-1.009q-.433-.526-.811-1.093t-.7-1.168a13.594,13.594,0,0,1-.582-1.231q-.262-.629-.459-1.282t-.33-1.321q-.134-.669-.2-1.347t-.067-1.36q0-.682.067-1.36t.2-1.347q.133-.668.33-1.321t.459-1.282a13.587,13.587,0,0,1,.582-1.231q.321-.6.7-1.168t.811-1.093q.432-.527.914-1.009t1.009-.914q.526-.433,1.093-.811t1.168-.7a13.6,13.6,0,0,1,1.231-.582q.629-.262,1.282-.459t1.321-.33q.669-.134,1.347-.2T248.373,164.5Z" transform="translate(-234.5 -164.5)" fill="#ff9698"/>
    <path id="Path_12528" data-name="Path 12528" d="M248.373,164.5q.682,0,1.36.067t1.347.2q.668.133,1.321.33t1.282.459a13.6,13.6,0,0,1,1.231.582q.6.321,1.168.7t1.093.811a13.612,13.612,0,0,1,1.009.914q.483.482.914,1.009t.811,1.093q.379.567.7,1.168a13.554,13.554,0,0,1,.582,1.231q.262.629.459,1.282t.33,1.321q.134.669.2,1.347t.067,1.36q0,.682-.067,1.36t-.2,1.347q-.133.668-.33,1.321t-.459,1.282a13.562,13.562,0,0,1-.582,1.231q-.321.6-.7,1.168t-.811,1.093q-.432.527-.914,1.009a13.613,13.613,0,0,1-1.009.914q-.526.433-1.093.811t-1.168.7q-.6.321-1.231.582t-1.282.459q-.652.2-1.321.33t-1.347.2q-.678.066-1.36.067t-1.36-.067q-.679-.067-1.347-.2t-1.321-.33q-.652-.2-1.282-.459a13.59,13.59,0,0,1-1.231-.582q-.6-.321-1.168-.7t-1.093-.811q-.527-.432-1.009-.914t-.914-1.009q-.433-.526-.811-1.093t-.7-1.168a13.594,13.594,0,0,1-.582-1.231q-.262-.629-.459-1.282t-.33-1.321q-.134-.669-.2-1.347t-.067-1.36q0-.682.067-1.36t.2-1.347q.133-.668.33-1.321t.459-1.282a13.587,13.587,0,0,1,.582-1.231q.321-.6.7-1.168t.811-1.093q.432-.527.914-1.009t1.009-.914q.526-.433,1.093-.811t1.168-.7a13.6,13.6,0,0,1,1.231-.582q.629-.262,1.282-.459t1.321-.33q.669-.134,1.347-.2T248.373,164.5Z" transform="translate(-234.5 -164.5)" fill="none" stroke="#fafafa" stroke-width="1"/>
    <path id="Path_12529" data-name="Path 12529" d="M254,187.24v-9.249a.991.991,0,1,1,1.982,0v9.249a.991.991,0,1,1-1.982,0Z" transform="translate(-241.118 -168.742)" fill="#fff"/>
    <path id="Path_12530" data-name="Path 12530" d="M247.991,184h9.249a.991.991,0,1,1,0,1.982h-9.249a.991.991,0,1,1,0-1.982Z" transform="translate(-238.742 -171.118)" fill="#fff"/>
  </g>
</svg>
