<svg xmlns="http://www.w3.org/2000/svg" width="98.429" height="120.796" viewBox="0 0 98.429 120.796">
  <g id="Group_2941" data-name="Group 2941" transform="translate(-100 474)">
    <g id="Group_6" data-name="Group 6" transform="translate(0.818 -805.393)">
      <g id="Group_5" data-name="Group 5">
        <path id="Path_9" data-name="Path 9" d="M109.779,436.525h-7.926v-7.283H99.182v18.277h2.671v-8.4h7.926v8.4h2.647V429.243h-2.647Z" fill="#fff"/>
        <path id="Path_10" data-name="Path 10" d="M131.128,437.81l-2.353.755.081.267a4.948,4.948,0,0,1-1.144,5.346,4.109,4.109,0,0,1-3,1.252h-.041a4.747,4.747,0,0,1-3.047-1.17l8.166-8.166-.209-.2a7.785,7.785,0,0,0-5.387-2.432,6.928,6.928,0,0,0-4.984,2.111,6.684,6.684,0,0,0-2.041,5.075A7.511,7.511,0,0,0,124.4,447.9l.2,0a6.775,6.775,0,0,0,4.923-2.113,6.961,6.961,0,0,0,1.984-3.469,8.581,8.581,0,0,0-.305-4.237Zm-5.024-1.331-5.9,5.9a4.062,4.062,0,0,1,.772-5.035,4.594,4.594,0,0,1,2.6-1.341,3.953,3.953,0,0,1,.583-.044A4,4,0,0,1,126.1,436.479Z" fill="#fff"/>
        <rect id="Rectangle_4" data-name="Rectangle 4" width="2.55" height="18.712" transform="translate(135.789 428.807)" fill="#fff"/>
        <path id="Path_11" data-name="Path 11" d="M150.419,433.428a6.248,6.248,0,0,0-4.556,1.9v-1.563h-2.55v18.422h2.55v-6.194a6.645,6.645,0,0,0,4.677,1.96,6.717,6.717,0,0,0,5-2.143,7.167,7.167,0,0,0,2.063-5.133,7.081,7.081,0,0,0-2.09-5.122A6.9,6.9,0,0,0,150.419,433.428Zm-.048,2.5a4.4,4.4,0,0,1,3.317,1.4,4.889,4.889,0,0,1-.023,6.791,4.371,4.371,0,0,1-3.246,1.4,4.45,4.45,0,0,1-3.307-1.38,4.684,4.684,0,0,1-1.37-3.418,4.749,4.749,0,0,1,1.336-3.42A4.361,4.361,0,0,1,150.371,435.93Z" fill="#fff"/>
        <path id="Path_12" data-name="Path 12" d="M175.453,437.81l-2.353.755.08.267a4.945,4.945,0,0,1-1.144,5.346,4.106,4.106,0,0,1-3,1.252h-.04a4.75,4.75,0,0,1-3.048-1.17l8.166-8.166-.209-.2a7.784,7.784,0,0,0-5.387-2.432,6.924,6.924,0,0,0-4.983,2.111,6.685,6.685,0,0,0-2.042,5.075,7.511,7.511,0,0,0,7.239,7.255l.2,0a6.779,6.779,0,0,0,4.924-2.113,6.968,6.968,0,0,0,1.984-3.469,8.6,8.6,0,0,0-.305-4.237Zm-5.025-1.331-5.9,5.9a4.06,4.06,0,0,1,.771-5.035A4.6,4.6,0,0,1,167.9,436a3.887,3.887,0,0,1,2.529.478Z" fill="#fff"/>
        <path id="Path_13" data-name="Path 13" d="M182.859,433.916a4.38,4.38,0,0,0-.776.721v-.87h-2.6v13.752h2.6v-4.807a20.506,20.506,0,0,1,.293-4.25,4.658,4.658,0,0,1,.853-1.825,1.321,1.321,0,0,1,1.8-.45l.234.125,1.336-2.176-.264-.142A3.135,3.135,0,0,0,182.859,433.916Z" fill="#fff"/>
        <path id="Path_14" data-name="Path 14" d="M194.27,439.473a10.142,10.142,0,0,1-1.96-1.24,1.312,1.312,0,0,1-.477-1,1.241,1.241,0,0,1,.418-.954,1.492,1.492,0,0,1,1.066-.4,3.824,3.824,0,0,1,2.42,1.254l.2.19,1.671-1.734-.2-.2a5.766,5.766,0,0,0-3.863-1.968,4.128,4.128,0,0,0-2.979,1.1,3.58,3.58,0,0,0-1.139,2.659,3.785,3.785,0,0,0,.805,2.5,7.055,7.055,0,0,0,2.266,1.681,9.26,9.26,0,0,1,1.969,1.226,1.481,1.481,0,0,1,.5,1.146,1.585,1.585,0,0,1-.563,1.208,1.941,1.941,0,0,1-1.38.529,3.369,3.369,0,0,1-2.446-1.425l-.21-.245-1.633,1.82.147.187a5.176,5.176,0,0,0,4.215,2.141,4.242,4.242,0,0,0,3.09-1.243,4.153,4.153,0,0,0,1.257-3.057,3.635,3.635,0,0,0-.854-2.434A7.822,7.822,0,0,0,194.27,439.473Z" fill="#fff"/>
      </g>
    </g>
    <path id="Path_15" data-name="Path 15" d="M179.359,347.132c-6.643-13.857-11.2-15.739-14.793-15.739-1.71,0-6.537,4.345-10.091,9.607H142.308c-3.05-4.454-8.106-9.607-10.123-9.607-3.569,0-8.111,1.882-14.755,15.74C109.1,354,97.791,370.314,106.606,389.414c4.961,10.747,14.8,15.52,23.953,17.644l-.033,10.1,17.923-7.879,17.778,7.881.032-10.112c9.15-2.127,18.971-6.9,23.927-17.637C199,370.312,187.687,354,179.359,347.132Zm7.36,40.683c-7.906,17.129-30.8,17.129-38.323,17.129s-30.417,0-38.323-17.131a28.557,28.557,0,0,1-.805-23.177,36.849,36.849,0,0,1,10.894-14.8l.343-.275.188-.4c5.948-12.532,9.511-13.806,11.078-13.935a32.065,32.065,0,0,1,7.9,8.709l.563.883h16.321l.562-.885a31.534,31.534,0,0,1,7.894-8.708c1.547.129,5.135,1.4,11.084,13.936l.188.4.343.275a36.84,36.84,0,0,1,10.9,14.8A28.557,28.557,0,0,1,186.719,387.815Z" transform="translate(0.818 -805.393)" fill="#fff"/>
    <circle id="Ellipse_4" data-name="Ellipse 4" cx="5.005" cy="5.005" r="5.005" transform="matrix(0.973, -0.23, 0.23, 0.973, 161.375, -440.435)" fill="#fff"/>
    <circle id="Ellipse_5" data-name="Ellipse 5" cx="5.005" cy="5.005" r="5.005" transform="translate(123.956 -436.714) rotate(-45)" fill="#fff"/>
    <path id="Path_16" data-name="Path 16" d="M148.4,375.559c-3.617,0-6.55,2.309-6.55,5.157,0,1.765,2.516,3.323,4.43,4.252a11.293,11.293,0,0,1-2.18,5.874,1.909,1.909,0,0,0,3.061,2.282,14.762,14.762,0,0,0,1.239-1.98,14.871,14.871,0,0,0,1.24,1.98,1.909,1.909,0,1,0,3.061-2.282,11.285,11.285,0,0,1-2.18-5.874c1.913-.929,4.43-2.487,4.43-4.252C154.947,377.868,152.014,375.559,148.4,375.559Z" transform="translate(0.818 -805.393)" fill="#fff"/>
    <circle id="Ellipse_6" data-name="Ellipse 6" cx="2.963" cy="2.963" r="2.963" transform="translate(146.252 -392.778)" fill="#fff"/>
  </g>
</svg>
