<svg xmlns="http://www.w3.org/2000/svg" width="140" height="140" viewBox="0 0 140 140">
  <g id="Group_15" data-name="Group 15" transform="translate(-100 -611)">
    <rect id="Rectangle_7" data-name="Rectangle 7" width="140" height="140" rx="27" transform="translate(100 611)" fill="#ff9698"/>
    <g id="Group_13" data-name="Group 13" transform="translate(21.579 1111.341)">
      <g id="Group_7" data-name="Group 7" transform="translate(103.633 -474)">
        <path id="Path_15" data-name="Path 15" d="M179.379,347.136c-6.645-13.861-11.207-15.743-14.8-15.743-1.71,0-6.539,4.346-10.094,9.61h-12.17c-3.051-4.455-8.108-9.61-10.126-9.61-3.57,0-8.113,1.883-14.759,15.744-8.328,6.869-19.644,23.187-10.827,42.292,4.962,10.75,14.8,15.524,23.959,17.649l-.033,10.107,17.928-7.881,17.783,7.883.032-10.115c9.152-2.128,18.976-6.9,23.933-17.642C199.028,370.322,187.709,354,179.379,347.136Zm7.362,40.694c-7.908,17.133-30.808,17.133-38.333,17.133s-30.425,0-38.333-17.135a28.564,28.564,0,0,1-.805-23.183,36.858,36.858,0,0,1,10.9-14.808l.343-.275.188-.4c5.95-12.535,9.513-13.81,11.081-13.939a32.074,32.074,0,0,1,7.9,8.711l.563.883H156.57l.562-.885a31.542,31.542,0,0,1,7.9-8.71c1.547.129,5.136,1.4,11.087,13.94l.188.4.343.275a36.85,36.85,0,0,1,10.9,14.808A28.565,28.565,0,0,1,186.741,387.83Z" transform="translate(-103.406 -331.393)" fill="#fff"/>
        <circle id="Ellipse_4" data-name="Ellipse 4" cx="5.006" cy="5.006" r="5.006" transform="matrix(0.973, -0.23, 0.23, 0.973, 57.166, 33.574)" fill="#fff"/>
        <circle id="Ellipse_5" data-name="Ellipse 5" cx="5.006" cy="5.006" r="5.006" transform="translate(19.738 37.296) rotate(-45)" fill="#fff"/>
        <path id="Path_16" data-name="Path 16" d="M148.4,375.559c-3.618,0-6.552,2.31-6.552,5.158,0,1.765,2.517,3.324,4.431,4.253a11.3,11.3,0,0,1-2.181,5.875,1.909,1.909,0,1,0,3.062,2.283,14.756,14.756,0,0,0,1.239-1.98,14.878,14.878,0,0,0,1.24,1.98,1.91,1.91,0,1,0,3.062-2.283,11.287,11.287,0,0,1-2.181-5.875c1.913-.929,4.431-2.488,4.431-4.253C154.95,377.869,152.017,375.559,148.4,375.559Z" transform="translate(-103.396 -331.382)" fill="#fff"/>
        <circle id="Ellipse_6" data-name="Ellipse 6" cx="2.964" cy="2.964" r="2.964" transform="translate(42.039 81.243)" fill="#fff"/>
      </g>
    </g>
  </g>
</svg>