<svg xmlns="http://www.w3.org/2000/svg" width="222" height="63.647" viewBox="0 0 222 63.647">
  <g id="Group_4" data-name="Group 4" transform="translate(-306.842 -362.783)">
    <g id="Group_2" data-name="Group 2" transform="translate(386.053 377.647)">
      <g id="Group_1" data-name="Group 1">
        <path id="Path_1" data-name="Path 1" d="M394.418,387.472h-11.5V376.908h-3.875v26.513h3.875V391.242h11.5v12.179h3.84V376.908h-3.84Z" transform="translate(-379.045 -376.276)" fill="#1a1311"/>
        <path id="Path_2" data-name="Path 2" d="M423.08,388.8l-3.413,1.095.116.387c.955,3.146.411,5.684-1.66,7.755a5.955,5.955,0,0,1-4.354,1.816h-.059a6.894,6.894,0,0,1-4.421-1.7L421.135,386.3l-.3-.291a11.289,11.289,0,0,0-7.814-3.527,10.053,10.053,0,0,0-7.23,3.062,9.7,9.7,0,0,0-2.961,7.362,10.9,10.9,0,0,0,10.5,10.525c.1,0,.2,0,.3,0a9.836,9.836,0,0,0,7.143-3.066,10.093,10.093,0,0,0,2.878-5.031,12.469,12.469,0,0,0-.442-6.147Zm-7.289-1.931-8.555,8.555c-1.323-2.837-.953-5.231,1.119-7.3a6.667,6.667,0,0,1,3.767-1.944,5.529,5.529,0,0,1,.847-.065A5.783,5.783,0,0,1,415.791,386.864Z" transform="translate(-376.737 -375.734)" fill="#1a1311"/>
        <rect id="Rectangle_3" data-name="Rectangle 3" width="3.699" height="27.145" transform="translate(53.105)" fill="#1a1311"/>
        <path id="Path_3" data-name="Path 3" d="M447.709,382.442A9.063,9.063,0,0,0,441.1,385.2v-2.268h-3.7v26.724h3.7v-8.985a9.639,9.639,0,0,0,6.784,2.843,9.745,9.745,0,0,0,7.246-3.109,10.393,10.393,0,0,0,2.992-7.445,10.267,10.267,0,0,0-3.031-7.43A10,10,0,0,0,447.709,382.442Zm-.07,3.629a6.382,6.382,0,0,1,4.812,2.034,7.09,7.09,0,0,1-.033,9.851,6.337,6.337,0,0,1-4.709,2.036,6.45,6.45,0,0,1-4.8-2,6.791,6.791,0,0,1-1.987-4.958,6.89,6.89,0,0,1,1.937-4.962A6.324,6.324,0,0,1,447.639,386.071Z" transform="translate(-373.38 -375.739)" fill="#1a1311"/>
        <path id="Path_4" data-name="Path 4" d="M481.692,388.8l-3.414,1.095.116.387c.954,3.146.411,5.684-1.66,7.755a5.953,5.953,0,0,1-4.354,1.816h-.059a6.894,6.894,0,0,1-4.421-1.7L479.747,386.3l-.3-.291a11.289,11.289,0,0,0-7.814-3.527,10.045,10.045,0,0,0-7.229,3.062,9.694,9.694,0,0,0-2.962,7.362,10.9,10.9,0,0,0,10.5,10.525c.1,0,.2,0,.3,0a9.835,9.835,0,0,0,7.142-3.066,10.1,10.1,0,0,0,2.879-5.031,12.483,12.483,0,0,0-.443-6.147Zm-7.29-1.931-8.555,8.555c-1.322-2.837-.953-5.231,1.119-7.3a6.67,6.67,0,0,1,3.767-1.944,5.53,5.53,0,0,1,.847-.065A5.78,5.78,0,0,1,474.4,386.864Z" transform="translate(-371.048 -375.734)" fill="#1a1311"/>
        <path id="Path_5" data-name="Path 5" d="M490.126,383.149A6.347,6.347,0,0,0,489,384.2v-1.263h-3.77v19.95H489v-6.974a29.683,29.683,0,0,1,.426-6.164,6.756,6.756,0,0,1,1.236-2.648,1.914,1.914,0,0,1,2.614-.652l.34.18,1.937-3.156-.383-.206C493.115,382.161,491.438,382.221,490.126,383.149Z" transform="translate(-368.738 -375.739)" fill="#1a1311"/>
        <path id="Path_6" data-name="Path 6" d="M505.492,391.212a14.685,14.685,0,0,1-2.844-1.8,1.9,1.9,0,0,1-.692-1.451,1.8,1.8,0,0,1,.607-1.384,2.168,2.168,0,0,1,1.546-.575,5.543,5.543,0,0,1,3.511,1.821l.3.275,2.424-2.516-.293-.285c-1.942-1.894-3.828-2.855-5.6-2.855a5.986,5.986,0,0,0-4.321,1.59,5.19,5.19,0,0,0-1.652,3.858,5.5,5.5,0,0,0,1.166,3.632,10.255,10.255,0,0,0,3.288,2.438,13.444,13.444,0,0,1,2.856,1.778,2.149,2.149,0,0,1,.727,1.663,2.3,2.3,0,0,1-.816,1.752,2.817,2.817,0,0,1-2,.768,4.889,4.889,0,0,1-3.549-2.068l-.3-.355-2.367,2.642.213.271a7.511,7.511,0,0,0,6.114,3.1,6.153,6.153,0,0,0,4.483-1.8,6.019,6.019,0,0,0,1.824-4.433,5.276,5.276,0,0,0-1.239-3.531A11.3,11.3,0,0,0,505.492,391.212Z" transform="translate(-367.55 -375.739)" fill="#1a1311"/>
      </g>
    </g>
    <g id="Group_3" data-name="Group 3" transform="translate(306.842 362.783)">
      <path id="Path_7" data-name="Path 7" d="M362.313,374.278c-4.851-10.12-8.183-11.5-10.8-11.5-1.248,0-4.774,3.174-7.37,7.017h-8.885c-2.228-3.253-5.921-7.017-7.394-7.017-2.607,0-5.923,1.375-10.775,11.5-6.081,5.016-14.343,16.93-7.9,30.879,3.623,7.849,10.8,11.336,17.493,12.886l-.024,7.38,13.09-5.754,12.984,5.756.023-7.387c6.682-1.552,13.855-5.039,17.474-12.88C376.659,391.207,368.4,379.294,362.313,374.278Zm5.374,29.712c-5.774,12.51-22.493,12.51-27.987,12.51s-22.214,0-27.989-12.511a20.858,20.858,0,0,1-.587-16.927,26.9,26.9,0,0,1,7.956-10.813l.25-.2.137-.289c4.344-9.153,6.947-10.083,8.091-10.177a23.434,23.434,0,0,1,5.771,6.36l.41.646h11.92l.411-.647a23.012,23.012,0,0,1,5.765-6.359c1.13.093,3.75,1.02,8.1,10.176l.137.291.25.2a26.908,26.908,0,0,1,7.958,10.813A20.848,20.848,0,0,1,367.687,403.99Z" transform="translate(-306.842 -362.783)" fill="#e56274"/>
      <circle id="Ellipse_1" data-name="Ellipse 1" cx="3.655" cy="3.655" r="3.655" transform="translate(41.739 24.514) rotate(-13.282)" fill="#e56274"/>
      <circle id="Ellipse_2" data-name="Ellipse 2" cx="3.655" cy="3.655" r="3.655" transform="translate(15.925 23.576)" fill="#e56274"/>
      <path id="Path_8" data-name="Path 8" d="M337.216,392.185c-2.643,0-4.784,1.686-4.784,3.766,0,1.289,1.838,2.427,3.235,3.106a8.244,8.244,0,0,1-1.592,4.29,1.395,1.395,0,0,0,2.236,1.667,10.87,10.87,0,0,0,.905-1.447,10.767,10.767,0,0,0,.905,1.447,1.394,1.394,0,1,0,2.235-1.667,8.253,8.253,0,0,1-1.592-4.29c1.4-.679,3.235-1.817,3.235-3.106C342,393.871,339.858,392.185,337.216,392.185Z" transform="translate(-304.358 -359.929)" fill="#e56274"/>
      <circle id="Ellipse_3" data-name="Ellipse 3" cx="2.164" cy="2.164" r="2.164" transform="translate(30.694 59.319)" fill="#e56274"/>
    </g>
  </g>
</svg>
