<svg xmlns="http://www.w3.org/2000/svg" width="192.321" height="191.07" viewBox="0 0 192.321 191.07">
  <circle id="Ellipse_140" data-name="Ellipse 140" cx="94" cy="94" r="94" fill="#f4f4f4"/>
  <g id="Group_2867" data-name="Group 2867" transform="translate(44.791 47.186)">
    <path id="Path_12525" data-name="Path 12525" d="M941.849,414.964H850.237a3.163,3.163,0,0,0-3.162,3.162v71.433a3.163,3.163,0,0,0,3.162,3.162h91.613a3.162,3.162,0,0,0,3.162-3.162V418.126a3.163,3.163,0,0,0-3.162-3.162Zm-3.161,6.323v60.32L913.4,454.713a3.16,3.16,0,0,0-4.606,0l-10.8,11.477L883.51,447.1a3.159,3.159,0,0,0-2.518-1.251h0a3.169,3.169,0,0,0-2.519,1.255L853.4,480.274V421.287Zm-4.176,65.11H856.7L881,454.246l14.215,18.744a3.16,3.16,0,0,0,4.82.257l11.059-11.753Zm0,0" transform="translate(-847.075 -414.964)" fill="#656565"/>
    <path id="Path_12526" data-name="Path 12526" d="M961.934,458.5A10.395,10.395,0,1,0,951.54,448.1,10.406,10.406,0,0,0,961.934,458.5Zm0-14.466a4.071,4.071,0,1,1-4.071,4.072,4.075,4.075,0,0,1,4.071-4.072Zm0,0" transform="translate(-896.493 -425.724)" fill="#656565"/>
  </g>
  <g id="Group_2868" data-name="Group 2868" transform="translate(138.267 137.016)">
    <path id="Path_12527" data-name="Path 12527" d="M260.777,164.5q1.291,0,2.575.126t2.551.379q1.265.251,2.5.626t2.427.87a25.744,25.744,0,0,1,2.331,1.1q1.139.608,2.212,1.325t2.071,1.537q1,.818,1.911,1.732t1.732,1.911q.82,1,1.537,2.071t1.325,2.212a25.72,25.72,0,0,1,1.1,2.331q.5,1.192.87,2.427t.626,2.5q.253,1.267.379,2.551t.126,2.575q0,1.291-.126,2.575t-.379,2.551q-.251,1.265-.626,2.5t-.87,2.428a25.718,25.718,0,0,1-1.1,2.331q-.608,1.139-1.325,2.212t-1.537,2.071q-.818,1-1.732,1.911t-1.911,1.732q-1,.82-2.071,1.537t-2.212,1.325q-1.137.608-2.331,1.1t-2.427.87q-1.235.374-2.5.626t-2.551.379q-1.284.126-2.575.126t-2.575-.126q-1.286-.128-2.551-.379t-2.5-.626q-1.235-.375-2.427-.87a25.741,25.741,0,0,1-2.331-1.1q-1.139-.608-2.212-1.325t-2.071-1.537q-1-.818-1.911-1.732t-1.732-1.911q-.82-1-1.537-2.071t-1.325-2.212a25.734,25.734,0,0,1-1.1-2.331q-.5-1.192-.87-2.428t-.626-2.5q-.253-1.267-.379-2.551t-.126-2.575q0-1.291.126-2.575t.379-2.551q.251-1.265.626-2.5t.87-2.427a25.737,25.737,0,0,1,1.1-2.331q.608-1.139,1.325-2.212t1.537-2.071q.818-1,1.732-1.911t1.911-1.732q1-.82,2.071-1.537t2.212-1.325a25.737,25.737,0,0,1,2.331-1.1q1.192-.5,2.427-.87t2.5-.626q1.267-.253,2.551-.379T260.777,164.5Z" transform="translate(-234.5 -164.5)" fill="#ff9698"/>
    <path id="Path_12528" data-name="Path 12528" d="M260.777,164.5q1.291,0,2.575.126t2.551.379q1.265.251,2.5.626t2.427.87a25.744,25.744,0,0,1,2.331,1.1q1.139.608,2.212,1.325t2.071,1.537q1,.818,1.911,1.732t1.732,1.911q.82,1,1.537,2.071t1.325,2.212a25.72,25.72,0,0,1,1.1,2.331q.5,1.192.87,2.427t.626,2.5q.253,1.267.379,2.551t.126,2.575q0,1.291-.126,2.575t-.379,2.551q-.251,1.265-.626,2.5t-.87,2.428a25.718,25.718,0,0,1-1.1,2.331q-.608,1.139-1.325,2.212t-1.537,2.071q-.818,1-1.732,1.911t-1.911,1.732q-1,.82-2.071,1.537t-2.212,1.325q-1.137.608-2.331,1.1t-2.427.87q-1.235.374-2.5.626t-2.551.379q-1.284.126-2.575.126t-2.575-.126q-1.286-.128-2.551-.379t-2.5-.626q-1.235-.375-2.427-.87a25.741,25.741,0,0,1-2.331-1.1q-1.139-.608-2.212-1.325t-2.071-1.537q-1-.818-1.911-1.732t-1.732-1.911q-.82-1-1.537-2.071t-1.325-2.212a25.734,25.734,0,0,1-1.1-2.331q-.5-1.192-.87-2.428t-.626-2.5q-.253-1.267-.379-2.551t-.126-2.575q0-1.291.126-2.575t.379-2.551q.251-1.265.626-2.5t.87-2.427a25.737,25.737,0,0,1,1.1-2.331q.608-1.139,1.325-2.212t1.537-2.071q.818-1,1.732-1.911t1.911-1.732q1-.82,2.071-1.537t2.212-1.325a25.737,25.737,0,0,1,2.331-1.1q1.192-.5,2.427-.87t2.5-.626q1.267-.253,2.551-.379T260.777,164.5Z" transform="translate(-234.5 -164.5)" fill="none" stroke="#fafafa" stroke-width="3"/>
    <path id="Path_12529" data-name="Path 12529" d="M254,196.395V178.877a1.877,1.877,0,1,1,3.754,0v17.518a1.877,1.877,0,1,1-3.754,0Z" transform="translate(-229.6 -161.359)" fill="#fff"/>
    <path id="Path_12530" data-name="Path 12530" d="M248.877,184h17.518a1.877,1.877,0,1,1,0,3.754H248.877a1.877,1.877,0,1,1,0-3.754Z" transform="translate(-231.359 -159.6)" fill="#fff"/>
  </g>
</svg>
