<svg id="Group_2571" data-name="Group 2571" xmlns="http://www.w3.org/2000/svg" width="26.311" height="26.312" viewBox="0 0 26.311 26.312">
  <g id="Group_2572" data-name="Group 2572" transform="translate(12.059 12.06)">
    <path id="Path_13467" data-name="Path 13467" d="M951.126,538.252a7.126,7.126,0,1,1,7.126-7.126,7.134,7.134,0,0,1-7.126,7.126Zm0-12.608a5.482,5.482,0,1,0,5.482,5.482,5.488,5.488,0,0,0-5.482-5.482Zm0,0" transform="translate(-944 -524)" fill="#62bde5"/>
    <path id="Path_13468" data-name="Path 13468" d="M1036.822,579.674a.822.822,0,0,1-.822-.822v-6.03a.822.822,0,1,1,1.644,0v6.03a.822.822,0,0,1-.822.822Zm0,0" transform="translate(-1029.696 -568.712)" fill="#62bde5"/>
    <path id="Path_13469" data-name="Path 13469" d="M998.852,617.644h-6.03a.822.822,0,1,1,0-1.644h6.03a.822.822,0,0,1,0,1.644Zm0,0" transform="translate(-988.709 -609.696)" fill="#62bde5"/>
  </g>
  <path id="Path_13470" data-name="Path 13470" d="M778.075,371.023h-7.06A3.017,3.017,0,0,1,768,368.008V351.015A3.017,3.017,0,0,1,771.015,348h12.608a3.017,3.017,0,0,1,3.015,3.015v6.677a.822.822,0,1,1-1.644,0v-6.677a1.372,1.372,0,0,0-1.37-1.37H771.015a1.372,1.372,0,0,0-1.37,1.37v16.993a1.372,1.372,0,0,0,1.37,1.37h7.06a.822.822,0,0,1,0,1.644Zm0,0" transform="translate(-768 -348)" fill="#62bde5"/>
  <path id="Path_13471" data-name="Path 13471" d="M827.237,477.644H816.822a.822.822,0,0,1,0-1.644h10.415a.822.822,0,1,1,0,1.644Zm0,0" transform="translate(-812.711 -467.229)" fill="#62bde5"/>
  <path id="Path_13472" data-name="Path 13472" d="M822.852,541.644h-6.03a.822.822,0,0,1,0-1.644h6.03a.822.822,0,1,1,0,1.644Zm0,0" transform="translate(-812.711 -526.844)" fill="#62bde5"/>
  <path id="Path_13473" data-name="Path 13473" d="M821.756,413.645h-4.933a.822.822,0,0,1,0-1.645h4.933a.822.822,0,1,1,0,1.645Zm0,0" transform="translate(-812.711 -407.615)" fill="#62bde5"/>
</svg>
