<svg xmlns="http://www.w3.org/2000/svg" width="128.464" height="36.83" viewBox="0 0 128.464 36.83">
  <g id="Group_4" data-name="Group 4" transform="translate(-306.842 -362.783)">
    <g id="Group_2" data-name="Group 2" transform="translate(352.679 371.384)">
      <g id="Group_1" data-name="Group 1">
        <path id="Path_1" data-name="Path 1" d="M387.941,383.021h-6.654v-6.113h-2.242V392.25h2.242V385.2h6.654v7.048h2.222V376.908h-2.222Z" transform="translate(-379.045 -376.542)" fill="#fff"/>
        <path id="Path_2" data-name="Path 2" d="M414.545,386.137l-1.975.634.067.224a4.151,4.151,0,0,1-.96,4.488,3.446,3.446,0,0,1-2.52,1.051h-.034a3.989,3.989,0,0,1-2.558-.983l6.855-6.855-.175-.168a6.532,6.532,0,0,0-4.522-2.041,5.817,5.817,0,0,0-4.184,1.772,5.611,5.611,0,0,0-1.713,4.26,6.305,6.305,0,0,0,6.076,6.091l.171,0a5.692,5.692,0,0,0,4.133-1.774,5.84,5.84,0,0,0,1.665-2.911,7.216,7.216,0,0,0-.256-3.557Zm-4.218-1.117-4.95,4.95a3.409,3.409,0,0,1,.648-4.227,3.858,3.858,0,0,1,2.18-1.125,3.2,3.2,0,0,1,.49-.037A3.346,3.346,0,0,1,410.327,385.02Z" transform="translate(-387.728 -378.58)" fill="#fff"/>
        <rect id="Rectangle_3" data-name="Rectangle 3" width="2.14" height="15.708" transform="translate(30.73)" fill="#fff"/>
        <path id="Path_3" data-name="Path 3" d="M443.366,382.442a5.245,5.245,0,0,0-3.824,1.6v-1.312H437.4v15.465h2.141v-5.2a5.578,5.578,0,0,0,3.926,1.645,5.639,5.639,0,0,0,4.193-1.8,6.014,6.014,0,0,0,1.731-4.308,5.941,5.941,0,0,0-1.754-4.3A5.789,5.789,0,0,0,443.366,382.442Zm-.041,2.1a3.693,3.693,0,0,1,2.784,1.177,4.1,4.1,0,0,1-.019,5.7,3.667,3.667,0,0,1-2.725,1.178,3.733,3.733,0,0,1-2.776-1.159,3.93,3.93,0,0,1-1.15-2.869,3.987,3.987,0,0,1,1.121-2.871A3.66,3.66,0,0,1,443.325,384.542Z" transform="translate(-400.354 -378.563)" fill="#fff"/>
        <path id="Path_4" data-name="Path 4" d="M473.157,386.137l-1.976.634.067.224a4.151,4.151,0,0,1-.961,4.488,3.445,3.445,0,0,1-2.52,1.051h-.034a3.989,3.989,0,0,1-2.558-.983l6.856-6.855-.176-.168a6.532,6.532,0,0,0-4.522-2.041,5.812,5.812,0,0,0-4.183,1.772,5.609,5.609,0,0,0-1.714,4.26,6.305,6.305,0,0,0,6.077,6.091l.171,0a5.691,5.691,0,0,0,4.133-1.774,5.842,5.842,0,0,0,1.666-2.911,7.224,7.224,0,0,0-.256-3.557Zm-4.219-1.117-4.95,4.95a3.41,3.41,0,0,1,.648-4.227,3.859,3.859,0,0,1,2.18-1.125,3.2,3.2,0,0,1,.49-.037A3.345,3.345,0,0,1,468.938,385.02Z" transform="translate(-409.131 -378.58)" fill="#fff"/>
        <path id="Path_5" data-name="Path 5" d="M488.064,382.852a3.672,3.672,0,0,0-.651.606v-.731h-2.181v11.544h2.181v-4.036a17.175,17.175,0,0,1,.246-3.567,3.909,3.909,0,0,1,.715-1.533,1.108,1.108,0,0,1,1.513-.377l.2.1,1.121-1.826-.222-.119A2.632,2.632,0,0,0,488.064,382.852Z" transform="translate(-417.82 -378.564)" fill="#fff"/>
        <path id="Path_6" data-name="Path 6" d="M502.11,387.517a8.5,8.5,0,0,1-1.646-1.042,1.1,1.1,0,0,1-.4-.84,1.042,1.042,0,0,1,.351-.8,1.254,1.254,0,0,1,.894-.333,3.207,3.207,0,0,1,2.031,1.054l.171.159,1.4-1.456-.169-.165a4.844,4.844,0,0,0-3.243-1.652,3.464,3.464,0,0,0-2.5.92,3,3,0,0,0-.956,2.233,3.181,3.181,0,0,0,.675,2.1,5.934,5.934,0,0,0,1.9,1.411,7.78,7.78,0,0,1,1.653,1.029,1.243,1.243,0,0,1,.421.962,1.332,1.332,0,0,1-.472,1.014,1.63,1.63,0,0,1-1.159.444,2.829,2.829,0,0,1-2.054-1.2l-.176-.206-1.37,1.529.123.157a4.346,4.346,0,0,0,3.538,1.8,3.56,3.56,0,0,0,2.594-1.044,3.483,3.483,0,0,0,1.056-2.565,3.053,3.053,0,0,0-.717-2.043A6.542,6.542,0,0,0,502.11,387.517Z" transform="translate(-422.288 -378.563)" fill="#fff"/>
      </g>
    </g>
    <g id="Group_3" data-name="Group 3" transform="translate(306.842 362.783)">
      <path id="Path_7" data-name="Path 7" d="M338.941,369.435c-2.807-5.856-4.735-6.652-6.252-6.652-.722,0-2.763,1.837-4.265,4.06h-5.142c-1.289-1.882-3.426-4.06-4.279-4.06-1.508,0-3.427.8-6.235,6.652-3.519,2.9-8.3,9.8-4.574,17.869,2.1,4.542,6.252,6.56,10.122,7.457l-.014,4.271,7.575-3.33,7.513,3.331.013-4.274c3.867-.9,8.017-2.916,10.112-7.453C347.243,379.231,342.461,372.337,338.941,369.435Zm3.11,17.193c-3.341,7.239-13.016,7.239-16.2,7.239s-12.855,0-16.2-7.24a12.07,12.07,0,0,1-.34-9.795,15.565,15.565,0,0,1,4.6-6.257l.145-.116.079-.167c2.514-5.3,4.02-5.835,4.682-5.889a13.56,13.56,0,0,1,3.339,3.68l.237.374h6.9l.238-.375a13.317,13.317,0,0,1,3.336-3.68c.654.054,2.17.59,4.684,5.889l.079.168.145.116a15.571,15.571,0,0,1,4.605,6.257A12.064,12.064,0,0,1,342.051,386.628Z" transform="translate(-306.842 -362.783)" fill="#fff"/>
      <circle id="Ellipse_1" data-name="Ellipse 1" cx="2.115" cy="2.115" r="2.115" transform="translate(24.153 14.185) rotate(-13.282)" fill="#fff"/>
      <circle id="Ellipse_2" data-name="Ellipse 2" cx="2.115" cy="2.115" r="2.115" transform="translate(9.215 13.643)" fill="#fff"/>
      <path id="Path_8" data-name="Path 8" d="M335.2,392.185a2.527,2.527,0,0,0-2.768,2.179c0,.746,1.063,1.4,1.872,1.8a4.771,4.771,0,0,1-.921,2.482.807.807,0,0,0,1.294.965,6.289,6.289,0,0,0,.524-.837,6.233,6.233,0,0,0,.524.837.807.807,0,1,0,1.293-.965,4.776,4.776,0,0,1-.921-2.482c.809-.393,1.872-1.051,1.872-1.8A2.527,2.527,0,0,0,335.2,392.185Z" transform="translate(-316.187 -373.52)" fill="#fff"/>
      <circle id="Ellipse_3" data-name="Ellipse 3" cx="1.252" cy="1.252" r="1.252" transform="translate(17.762 34.326)" fill="#fff"/>
    </g>
  </g>
</svg>
