<svg xmlns="http://www.w3.org/2000/svg" xmlns:xlink="http://www.w3.org/1999/xlink" width="148" height="148" viewBox="0 0 148 148">
  <defs>
    <filter id="Rectangle_1" x="0" y="0" width="148" height="148" filterUnits="userSpaceOnUse">
      <feOffset dy="4" input="SourceAlpha"/>
      <feGaussianBlur stdDeviation="8" result="blur"/>
      <feFlood flood-color="#455b63" flood-opacity="0.078"/>
      <feComposite operator="in" in2="blur"/>
      <feComposite in="SourceGraphic"/>
    </filter>
  </defs>
  <g id="Group_2900" data-name="Group 2900" transform="translate(24.078 19.903)">
    <g id="card" transform="translate(0 0)">
      <g transform="matrix(1, 0, 0, 1, -24.08, -19.9)" filter="url(#Rectangle_1)">
        <rect id="Rectangle_1-2" data-name="Rectangle 1" width="100" height="100" rx="12" transform="translate(24 20)" fill="#dbdbdb"/>
      </g>
    </g>
    <g id="Group_2506" data-name="Group 2506" transform="translate(21.505 27.449)">
      <path id="Path_12525" data-name="Path 12525" d="M901.327,414.964H848.885a1.811,1.811,0,0,0-1.81,1.81v40.891a1.81,1.81,0,0,0,1.81,1.81h52.442a1.81,1.81,0,0,0,1.81-1.81V416.774a1.81,1.81,0,0,0-1.81-1.81Zm-1.81,3.62v34.529l-14.477-15.4a1.809,1.809,0,0,0-2.637,0l-6.182,6.57-8.289-10.93a1.808,1.808,0,0,0-1.441-.716h0a1.813,1.813,0,0,0-1.442.718l-14.351,18.989V418.584Zm-2.39,37.271H852.582l13.911-18.4,8.137,10.73a1.809,1.809,0,0,0,2.759.147l6.331-6.728Zm0,0" transform="translate(-847.075 -414.964)" fill="#656565"/>
      <path id="Path_12526" data-name="Path 12526" d="M957.49,449.611a5.95,5.95,0,1,0-5.95-5.95,5.957,5.957,0,0,0,5.95,5.95Zm0-8.281a2.33,2.33,0,1,1-2.33,2.331,2.332,2.332,0,0,1,2.33-2.331Zm0,0" transform="translate(-920.029 -430.849)" fill="#656565"/>
    </g>
  </g>
</svg>
