<svg xmlns="http://www.w3.org/2000/svg" width="134.33" height="31.91" viewBox="0 0 134.33 31.91">
  <g id="Group_5" data-name="Group 5" transform="translate(0)">
    <path id="Path_9" data-name="Path 9" d="M113.644,439.182H102.827v-9.939H99.182v24.943h3.645V442.728h10.817v11.458h3.612V429.243h-3.612Z" transform="translate(-99.182 -428.648)" fill="#1a1311"/>
    <path id="Path_10" data-name="Path 10" d="M136.221,439.4l-3.211,1.03.111.364c.9,2.96.386,5.347-1.561,7.3a5.608,5.608,0,0,1-4.1,1.709h-.056a6.479,6.479,0,0,1-4.158-1.6l11.144-11.144-.285-.273a10.625,10.625,0,0,0-7.352-3.319,9.455,9.455,0,0,0-6.8,2.881,9.121,9.121,0,0,0-2.785,6.926,10.251,10.251,0,0,0,9.878,9.9q.139,0,.278,0a9.247,9.247,0,0,0,6.719-2.884,9.5,9.5,0,0,0,2.708-4.734,11.711,11.711,0,0,0-.416-5.782Zm-6.856-1.816-8.049,8.049c-1.243-2.669-.9-4.921,1.054-6.871a6.27,6.27,0,0,1,3.544-1.83,5.394,5.394,0,0,1,.8-.06A5.458,5.458,0,0,1,129.365,437.579Z" transform="translate(-92.623 -427.11)" fill="#1a1311"/>
    <rect id="Rectangle_4" data-name="Rectangle 4" width="3.48" height="25.537" transform="translate(49.96)" fill="#1a1311"/>
    <path id="Path_11" data-name="Path 11" d="M153.011,433.428a8.527,8.527,0,0,0-6.218,2.6v-2.133h-3.48v25.141h3.48v-8.453a9.069,9.069,0,0,0,6.383,2.675,9.167,9.167,0,0,0,6.817-2.925,9.781,9.781,0,0,0,2.815-7.005,9.664,9.664,0,0,0-2.852-6.99A9.414,9.414,0,0,0,153.011,433.428Zm-.066,3.415a6,6,0,0,1,4.527,1.913,6.672,6.672,0,0,1-.031,9.268,5.966,5.966,0,0,1-4.43,1.915,6.073,6.073,0,0,1-4.513-1.883,6.392,6.392,0,0,1-1.87-4.665,6.481,6.481,0,0,1,1.823-4.667A5.952,5.952,0,0,1,152.945,436.843Z" transform="translate(-83.085 -427.122)" fill="#1a1311"/>
    <path id="Path_12" data-name="Path 12" d="M180.546,439.4l-3.211,1.03.109.364c.9,2.96.388,5.347-1.561,7.3a5.6,5.6,0,0,1-4.1,1.709h-.055a6.482,6.482,0,0,1-4.16-1.6l11.144-11.144-.285-.273a10.622,10.622,0,0,0-7.352-3.319,9.45,9.45,0,0,0-6.8,2.881,9.123,9.123,0,0,0-2.787,6.926,10.251,10.251,0,0,0,9.879,9.9c.093,0,.186,0,.277,0a9.252,9.252,0,0,0,6.72-2.884,9.51,9.51,0,0,0,2.708-4.734,11.743,11.743,0,0,0-.416-5.782Zm-6.858-1.816-8.048,8.049c-1.245-2.669-.9-4.921,1.052-6.871a6.274,6.274,0,0,1,3.544-1.83,5.306,5.306,0,0,1,3.451.652Z" transform="translate(-76.456 -427.11)" fill="#1a1311"/>
    <path id="Path_13" data-name="Path 13" d="M184.09,434.093a5.977,5.977,0,0,0-1.059.984V433.89h-3.546v18.768h3.546V446.1a27.984,27.984,0,0,1,.4-5.8,6.356,6.356,0,0,1,1.164-2.491,1.8,1.8,0,0,1,2.459-.614l.319.171,1.823-2.97-.36-.194C186.9,433.164,185.325,433.22,184.09,434.093Z" transform="translate(-69.892 -427.121)" fill="#1a1311"/>
    <path id="Path_14" data-name="Path 14" d="M196.288,441.678a13.841,13.841,0,0,1-2.675-1.692,1.791,1.791,0,0,1-.651-1.366,1.693,1.693,0,0,1,.57-1.3,2.036,2.036,0,0,1,1.455-.54,5.219,5.219,0,0,1,3.3,1.711l.277.259,2.28-2.366-.276-.268c-1.826-1.782-3.6-2.686-5.272-2.686a5.633,5.633,0,0,0-4.066,1.5,4.886,4.886,0,0,0-1.554,3.629,5.165,5.165,0,0,0,1.1,3.417,9.628,9.628,0,0,0,3.092,2.294,12.64,12.64,0,0,1,2.687,1.673,2.022,2.022,0,0,1,.684,1.564,2.163,2.163,0,0,1-.768,1.649,2.649,2.649,0,0,1-1.883.722,4.6,4.6,0,0,1-3.338-1.945l-.287-.334-2.229,2.484.2.255a7.063,7.063,0,0,0,5.752,2.922,5.79,5.79,0,0,0,4.217-1.7,5.667,5.667,0,0,0,1.715-4.172,4.96,4.96,0,0,0-1.165-3.322A10.675,10.675,0,0,0,196.288,441.678Z" transform="translate(-66.518 -427.122)" fill="#1a1311"/>
  </g>
</svg>
